<svg width="73" height="37" viewBox="0 0 73 37" fill="none" xmlns="http://www.w3.org/2000/svg">
<g clip-path="url(#clip0_3_163)">
<path d="M36.4988 9.76237C41.5385 9.76237 45.6238 5.69784 45.6238 0.683671C45.6238 -4.33019 41.5385 -8.395 36.4988 -8.395C31.4593 -8.395 27.3739 -4.33019 27.3739 0.683671C27.3739 5.69784 31.4593 9.76237 36.4988 9.76237Z" stroke="#333333" stroke-width="2" stroke-miterlimit="1.5" stroke-linecap="round" stroke-linejoin="round"/>
<path d="M27.375 -2.34106C27.375 -2.34106 21.2917 -5.36729 15.2084 -5.36729C9.12502 -5.36729 3.04169 0.685174 3.04169 0.685174C3.04169 0.685174 9.12502 6.73764 15.2084 6.73764C21.2917 6.73764 27.375 3.71141 27.375 3.71141" stroke="#333333" stroke-width="2" stroke-miterlimit="1.5" stroke-linecap="round" stroke-linejoin="round"/>
<path d="M39.5417 9.76389C39.5417 9.76389 42.5834 15.8164 42.5834 21.8688C42.5834 27.9213 36.5 33.9738 36.5 33.9738C36.5 33.9738 30.4167 27.9213 30.4167 21.8688C30.4167 15.8164 33.4584 9.76389 33.4584 9.76389" stroke="#333333" stroke-width="2" stroke-miterlimit="1.5" stroke-linecap="round" stroke-linejoin="round"/>
<path d="M45.625 -2.34106C45.625 -2.34106 51.7083 -5.36729 57.7917 -5.36729C63.875 -5.36729 69.9583 0.685174 69.9583 0.685174C69.9583 0.685174 63.875 6.73764 57.7917 6.73764C51.7083 6.73764 45.625 3.71141 45.625 3.71141" stroke="#333333" stroke-width="2" stroke-miterlimit="1.5" stroke-linecap="round" stroke-linejoin="round"/>
<path d="M27.8967 4.96487C27.8967 4.96487 21.4444 7.10472 17.1428 11.3844C12.8412 15.6641 12.8412 24.2238 12.8412 24.2238C12.8412 24.2238 21.4444 24.2238 25.7459 19.9441C30.0475 15.6641 32.1982 9.24457 32.1982 9.24457" stroke="#333333" stroke-width="2" stroke-miterlimit="1.5" stroke-linecap="round" stroke-linejoin="round"/>
<path d="M45.1033 4.96487C45.1033 4.96487 51.5556 7.10472 55.8572 11.3844C60.1587 15.6641 60.1587 24.2238 60.1587 24.2238C60.1587 24.2238 51.5556 24.2238 47.2541 19.9441C42.9526 15.6641 40.8018 9.24457 40.8018 9.24457" stroke="#333333" stroke-width="2" stroke-miterlimit="1.5" stroke-linecap="round" stroke-linejoin="round"/>
</g>
<defs>
<clipPath id="clip0_3_163">
<rect width="73" height="37" fill="white"/>
</clipPath>
</defs>
</svg>
