<svg width="73" height="37" viewBox="0 0 73 37" fill="none" xmlns="http://www.w3.org/2000/svg">
<g clip-path="url(#clip0_3_190)">
<path d="M21.2917 9.1748C16.2521 9.1748 12.1667 12.912 12.1667 17.5224C12.1667 22.1327 16.2521 25.8699 21.2917 25.8699C22.3582 25.8699 23.382 25.7024 24.3334 25.395" stroke="#333333" stroke-width="2" stroke-linecap="round" stroke-linejoin="round"/>
<path d="M12.9694 13.6396C8.89473 11.841 6.08344 8.02562 6.08344 3.60976C6.08344 0.238184 7.72207 -2.78305 10.3106 -4.82411" stroke="#333333" stroke-width="2" stroke-linecap="round" stroke-linejoin="round"/>
<path d="M22.0146 -14.2948C21.5509 -15.1941 21.2916 -16.1989 21.2916 -17.2591C21.2916 -21.101 24.6961 -24.2154 28.8958 -24.2154C33.0954 -24.2154 36.5 -21.101 36.5 -17.2591V25.8699" stroke="#333333" stroke-width="2" stroke-linecap="round" stroke-linejoin="round"/>
<path d="M24.3334 25.8699C24.3334 28.9435 27.057 31.435 30.4167 31.435C33.7765 31.435 36.5 28.9435 36.5 25.8699" stroke="#333333" stroke-width="2" stroke-linecap="round" stroke-linejoin="round"/>
<path d="M51.7083 9.1748C56.748 9.1748 60.8333 12.912 60.8333 17.5224C60.8333 22.1327 56.748 25.8699 51.7083 25.8699C50.6419 25.8699 49.6181 25.7024 48.6666 25.395" stroke="#333333" stroke-width="2" stroke-linecap="round" stroke-linejoin="round"/>
<path d="M60.0306 13.6396C64.1053 11.841 66.9167 8.02562 66.9167 3.60976C66.9167 0.238184 65.2778 -2.78305 62.6894 -4.82411" stroke="#333333" stroke-width="2" stroke-linecap="round" stroke-linejoin="round"/>
<path d="M48.6667 25.8699C48.6667 28.9435 45.9432 31.435 42.5833 31.435C39.2235 31.435 36.5 28.9435 36.5 25.8699" stroke="#333333" stroke-width="2" stroke-linecap="round" stroke-linejoin="round"/>
</g>
<defs>
<clipPath id="clip0_3_190">
<rect width="73" height="37" fill="white"/>
</clipPath>
</defs>
</svg>
