<svg width="73" height="37" viewBox="0 0 73 37" fill="none" xmlns="http://www.w3.org/2000/svg">
<g clip-path="url(#clip0_3_253)">
<path d="M63.875 -5.19542V18.3622C63.875 18.9145 63.5158 19.4232 62.9363 19.6917L37.3863 31.5202C36.8352 31.7754 36.1648 31.7754 35.6137 31.5202L10.0637 19.6917C9.48434 19.4232 9.125 18.9145 9.125 18.3622L9.12494 -5.19542C9.12494 -5.74773 9.48428 -6.25663 10.0637 -6.52485L35.6137 -18.3536C36.1648 -18.6087 36.8352 -18.6087 37.3863 -18.3536L62.9363 -6.52485C63.5155 -6.25663 63.875 -5.74773 63.875 -5.19542Z" stroke="#333333" stroke-width="2" stroke-linecap="round" stroke-linejoin="round"/>
<path d="M10.7323 -5.34616L35.6137 6.17296C36.1648 6.42821 36.8352 6.42821 37.3863 6.17296L62.3542 -5.38621" stroke="#333333" stroke-width="2" stroke-linecap="round" stroke-linejoin="round"/>
<path d="M36.5 29.3958V6.58333" stroke="#333333" stroke-width="2" stroke-linecap="round" stroke-linejoin="round"/>
</g>
<defs>
<clipPath id="clip0_3_253">
<rect width="73" height="37" fill="white"/>
</clipPath>
</defs>
</svg>
